<svg id="Layer_1" data-name="Layer 1" xmlns="http://www.w3.org/2000/svg" xmlns:xlink="http://www.w3.org/1999/xlink" viewBox="0 0 353.92 312"><defs><style>.cls-1{fill:#7aa4dd;}.cls-2{clip-path:url(#clip-path);}.cls-3,.cls-4{fill:#fff;}.cls-4{opacity:0.52;isolation:isolate;}.cls-5{fill:#f4f4f4;}</style><clipPath id="clip-path" transform="translate(9.31 -8.89)"><rect class="cls-1" x="27.5" y="8.89" width="287.5" height="312"/></clipPath></defs><title>day</title><rect class="cls-1" x="36.81" width="287.5" height="312"/><g class="cls-2"><g id="day"><rect class="cls-1" x="36.81" width="287.5" height="312"/><path id="cloud" class="cls-3" d="M161.61,73.81a26.42,26.42,0,0,0-5.74.62c-2.56-13.87-15-22.86-27.83-20.08a22.82,22.82,0,0,0-5.29,1.87C116.69,38.53,98.52,29.5,82.17,36.07,66,42.57,57.63,61.94,63.4,79.55c-14.52.59-25.85,13.82-25.31,29.55.53,15.22,12,27.3,26.1,27.41h97.42c16,0,29-14,29-31.35s-13-31.35-29-31.35Z" transform="translate(9.31 -8.89)"/><path id="cloud-2" class="cls-4" d="M208.11,68.78a23.7,23.7,0,0,0-5,.55c-2.25-12.15-13.17-20-24.39-17.59a18.93,18.93,0,0,0-4.63,1.64C168.74,37.87,152.81,30,138.49,35.73S117,58.39,122.05,73.82c-12.73.36-22.77,11.84-22.43,25.62.33,13.55,10.6,24.34,23.13,24.3h85.36c14,0,25.38-12.3,25.38-27.47s-11.36-27.48-25.37-27.48h0Z" transform="translate(9.31 -8.89)"/><path id="cloud-3" class="cls-5" d="M266.75,154.43a16.91,16.91,0,0,1,3.61.39c1.61-8.73,9.46-14.39,17.52-12.64a14.21,14.21,0,0,1,3.33,1.18c3.77-11.16,15.18-16.9,25.49-12.81S332.28,146.9,328.57,158c9.15.32,16.32,8.6,16,18.5-.28,9.66-7.59,17.35-16.53,17.36H266.75c-10.07.07-18.29-8.71-18.35-19.61s8-19.8,18.12-19.86Z" transform="translate(9.31 -8.89)"/><path id="cloud-4" class="cls-3" d="M14.14,200.74a22,22,0,0,1,4.64.5C20.86,190,31,182.74,41.32,185a17.91,17.91,0,0,1,4.28,1.52c4.81-14.37,19.47-21.78,32.74-16.57S98.46,191,93.64,205.39h0c11.76.4,21,11,20.63,23.77-.36,12.44-9.77,22.33-21.27,22.34H14.14c-12.95,0-23.45-11.36-23.45-25.38S1.19,200.74,14.14,200.74Z" transform="translate(9.31 -8.89)"/></g></g></svg>